# xmcd
#
# Track frame offsets: 
#        150
#        16809
#        35448
#        48324
#        64802
#        85158
#        97905
#        113832
#        126800
#
# Disc length: 1917 seconds
#
# Revision: 0
# Processed by: cddbd v1.5.2PL0 Copyright (c) Steve Scherf et al.
# Submitted via: ExactAudioCopy v0.99pb5
#
DISCID=68077b09
DTITLE=The Michael D. Band - Rowdy
DYEAR=2011
DGENRE=Country
TTITLE0=Let's Get Rowdy
TTITLE1=Seemed Like a Good Idea
TTITLE2=Thinkin' About You
TTITLE3=Reputation
TTITLE4=By the Moonlight
TTITLE5=Black Dress
TTITLE6=You've Got Something
TTITLE7=Raise It Up
TTITLE8=Live While you Can
EXTD=
EXTT0=
EXTT1=
EXTT2=
EXTT3=
EXTT4=
EXTT5=
EXTT6=
EXTT7=
EXTT8=
PLAYORDER=
